<svg width="1440" height="446" viewBox="0 0 1440 446" fill="none" xmlns="http://www.w3.org/2000/svg">
<path d="M0 256C43.6756 253.41 72 255.218 110.5 255.218M1440 163.966C1301.37 165.672 1347.83 250.494 1212.99 272.674C1092.41 292.509 1075.89 352.558 970 299.146C865.233 246.301 753.578 141.194 636.979 192.043C542.137 233.401 212.5 255.218 110.5 255.218M110.5 255.218C263.242 246.074 503.992 258.393 636.979 199.375C754.067 147.41 865.572 384.924 970 439.346C1075.46 494.308 1091.94 155.477 1212.99 134.488C1348.08 111.064 1300.69 172.413 1440 170.777M110.5 255.218C263.858 245.639 504.03 265.13 636.979 204.801C754.656 151.401 865.956 341.196 970 397.475C1074.95 454.243 1091.39 287.865 1212.99 265.337C1348.35 240.262 1299.9 177.398 1440 175.434M110.5 255.218C264.527 244.978 504.077 269.903 636.979 208.234C755.328 153.317 866.385 -24.3593 970 33.7898C1074.15 92.2398 1090.94 249.074 1212.99 224.46C1348.5 197.133 1299.12 180.356 1440 177.741M110.5 255.218C265.237 244.103 504.134 273.051 636.979 209.763C756.06 153.03 866.861 278.349 970 338.604C1073.48 399.058 1090.29 240.191 1212.99 213.488C1348.78 183.936 1298.18 181.562 1440 178.025M110.5 255.218C265.974 243.108 504.197 278.213 636.979 213.296C756.832 154.697 867.383 1.17547 970 63.5164C1072.73 125.928 1089.62 201.584 1212.99 172.646C1349.06 140.73 1297.17 182.747 1440 178.095M110.5 255.218C266.722 242 504.269 297.731 636.979 230.922C757.621 170.187 867.944 202.221 970 266.864C1071.94 331.43 1088.96 238.993 1212.99 207.606C1349.34 173.103 1296.11 182.155 1440 176.245M110.5 255.218C267.469 240.931 504.347 315.898 636.979 247.462C758.411 184.804 868.539 14.1932 970 80.8433C1071.11 147.259 1088.31 218.604 1212.99 184.837C1349.61 147.84 1295.02 182.278 1440 175.073M110.5 255.218C268.199 239.912 504.428 290.05 636.979 220C759.179 155.421 869.152 -53.8114 970 14.7974C1070.26 83.0076 1087.7 228.162 1212.99 192.014C1349.86 152.528 1293.92 182.351 1440 173.866M110.5 255.218C268.898 238.994 504.515 294.178 636.979 222.537C759.907 156.053 869.774 278.169 970 348.694C1069.42 418.654 1087.13 147.57 1212.99 109.087C1350.11 67.164 1292.83 182.353 1440 172.674M110.5 255.218C269.552 238.293 504.606 307.922 636.979 234.979C760.583 166.868 870.388 31.9535 970 104.098C1068.61 175.517 1086.62 317.826 1212.99 277.235C1350.34 233.122 1291.76 184.025 1440 173.345M110.5 255.218C270.149 237.807 504.702 343.62 636.979 269.413C761.187 199.732 870.98 97.6467 970 171.379C1067.85 244.241 1086.17 209.745 1212.99 167.183C1350.55 121.018 1290.73 187.575 1440 176.123M110.5 255.218C270.67 237.719 504.803 360.567 636.979 285.658C761.706 214.972 871.529 104.897 970 179.68C1067.17 253.478 1085.79 281.37 1212.99 237.312C1350.74 189.601 1289.77 192.52 1440 180.691M110.5 255.218C271.103 237.964 504.908 389.446 636.979 313.89C762.124 242.297 872.023 113.967 970 189.798C1066.59 264.556 1085.49 334.476 1212.99 289.146C1350.92 240.108 1288.89 199.276 1440 187.452M110.5 255.218C271.427 238.661 505.017 180.902 636.979 105.018C762.423 32.8802 872.44 55.6518 970 132.287C1066.13 207.796 1085.28 289.037 1212.99 242.849C1351.07 192.917 1288.12 208.579 1440 197.272M110.5 255.218C271.625 239.928 505.131 195.577 636.979 119.951C762.591 47.8971 872.761 80.7481 970 157.694C1065.81 233.511 1085.16 298.999 1212.99 252.578C1351.2 202.39 1287.48 221.199 1440 211.033M110.5 255.218C272.103 244.958 504.754 216.905 637.546 144.503C761.161 77.1036 873.294 168.754 969.358 242.308C1067.14 317.178 1085.86 190.542 1213.11 143.976C1350.93 93.539 1288.52 240.973 1440 228.468M110.5 255.218C273.138 250.41 503.985 237.828 638.422 169.337C758.89 107.964 873.934 -22.5564 968.37 46C1069.01 119.062 1086.8 179.978 1213.29 134.5C1350.38 85.2136 1290.8 264.328 1440 249.084" stroke="url(#paint0_linear_239_89)" stroke-miterlimit="10"/>
<defs>
<linearGradient id="paint0_linear_239_89" x1="0" y1="1.15662" x2="1472.32" y2="181.428" gradientUnits="userSpaceOnUse">
<stop stop-color="#696EFF"/>
<stop offset="1" stop-color="#F7ABFF"/>
</linearGradient>
</defs>
</svg>
