<svg width="20" height="21" viewBox="0 0 20 21" fill="none" xmlns="http://www.w3.org/2000/svg">
<g opacity="0.6">
<path d="M5 18.8333V3.83329C5 3.60829 5 3.37496 5.05833 3.14996C5.10934 2.92548 5.22228 2.71981 5.38431 2.5563C5.54635 2.39279 5.75099 2.27799 5.975 2.22496C6.21667 2.16663 7.275 2.16663 7.5 2.16663H13.3333C13.5583 2.16663 13.7917 2.16663 14.0167 2.22496C14.2411 2.27597 14.4468 2.3889 14.6103 2.55094C14.7738 2.71298 14.8886 2.91762 14.9417 3.14163C15 3.37496 15 3.60829 15 3.83329V18.8333H5Z" stroke="#1C1C2B" stroke-width="1.5" stroke-linecap="round" stroke-linejoin="round"/>
<path d="M1.66665 12.1667V17.1667C1.66665 18.0833 2.41665 18.8333 3.33331 18.8333H4.99998V10.5H3.33331C3.10831 10.5 2.87498 10.5 2.64998 10.5583C2.42498 10.6167 2.21665 10.725 2.04998 10.8917C1.89165 11.05 1.78331 11.2583 1.72498 11.4833C1.67794 11.7079 1.65835 11.9374 1.66665 12.1667Z" stroke="#1C1C2B" stroke-width="1.5" stroke-linecap="round" stroke-linejoin="round"/>
<path d="M17.35 8.05835C17.1254 8.01131 16.896 7.99173 16.6667 8.00002H15V18.8334H16.6667C17.1087 18.8334 17.5326 18.6578 17.8452 18.3452C18.1577 18.0326 18.3333 17.6087 18.3333 17.1667V9.66669C18.3333 9.43336 18.3333 9.20836 18.275 8.98336C18.2167 8.75836 18.1083 8.55002 17.9417 8.38336C17.7833 8.22502 17.575 8.11669 17.35 8.05835Z" stroke="#1C1C2B" stroke-width="1.5" stroke-linecap="round" stroke-linejoin="round"/>
<path d="M8.33331 5.5H11.6666" stroke="#1C1C2B" stroke-width="1.5" stroke-linecap="round" stroke-linejoin="round"/>
<path d="M8.33331 8.83337H11.6666" stroke="#1C1C2B" stroke-width="1.5" stroke-linecap="round" stroke-linejoin="round"/>
<path d="M8.33331 12.1666H11.6666" stroke="#1C1C2B" stroke-width="1.5" stroke-linecap="round" stroke-linejoin="round"/>
<path d="M8.33331 15.5H11.6666" stroke="#1C1C2B" stroke-width="1.5" stroke-linecap="round" stroke-linejoin="round"/>
</g>
</svg>
