<svg width="20" height="21" viewBox="0 0 20 21" fill="none" xmlns="http://www.w3.org/2000/svg">
<g clip-path="url(#clip0_284_285)">
<g clip-path="url(#clip1_284_285)">
<mask id="mask0_284_285" style="mask-type:alpha" maskUnits="userSpaceOnUse" x="-4" y="1" width="28" height="19">
<path d="M-4 1V20H24V1H-4Z" fill="#012169"/>
</mask>
<g mask="url(#mask0_284_285)">
<path d="M-4 0.968262V19.9683H24V0.968262H-4Z" fill="#012169"/>
<path fill-rule="evenodd" clip-rule="evenodd" d="M5.75312 10.5L-9.84888 2.55967L-8.14938 -0.900024L10.0019 8.33766L28.1531 -0.900024L29.8526 2.55967L14.2506 10.5L29.8526 18.4403L28.1531 21.9L10.0019 12.6623L-8.14938 21.9L-9.84888 18.4403L5.75312 10.5Z" fill="white"/>
<path fill-rule="evenodd" clip-rule="evenodd" d="M7.16932 10.5014L-9.56567 1.98444L-8.43267 -0.322021L10.0018 9.05982L28.4363 -0.322021L29.5693 1.98444L12.8343 10.5014L29.5693 19.0183L28.4363 21.3247L10.0018 11.9429L-8.43267 21.3247L-9.56567 19.0183L7.16932 10.5014Z" fill="#C8102E"/>
<path fill-rule="evenodd" clip-rule="evenodd" d="M13.1687 13.7236V20.1704H6.83502V13.7236H-8.99915V7.27684H6.83502V0.830078H13.1687V7.27684H29.0029V13.7236H13.1687Z" fill="white"/>
<path fill-rule="evenodd" clip-rule="evenodd" d="M11.902 12.4343V20.1704H8.10175V12.4343H-8.99915V8.5662H8.10175V0.830078H11.902V8.5662H29.0029V12.4343H11.902Z" fill="#C8102E"/>
</g>
</g>
</g>
<rect x="0.5" y="1" width="19" height="19" rx="9.5" stroke="white"/>
<defs>
<clipPath id="clip0_284_285">
<rect y="0.5" width="20" height="20" rx="10" fill="white"/>
</clipPath>
<clipPath id="clip1_284_285">
<rect width="28" height="19" fill="white" transform="translate(-4 1)"/>
</clipPath>
</defs>
</svg>
