<svg width="92" height="96" viewBox="0 0 92 96" xmlns="http://www.w3.org/2000/svg"><title>thin-0658_cup_place_winner_award_prize_achievement</title><g fill="none" fill-rule="evenodd"><g stroke-width="4" stroke="#000"><path d="M61.572 93.946h-30.92l2.573-9.246H59zM20.368 46.654C13.34 48.524 5.686 42.7 3.278 33.647.867 24.595 4.612 15.74 11.64 13.87c1.915-.51 3.876-.449 5.766.094m54.452 32.69c7.028 1.87 14.68-3.954 17.09-13.007 2.41-9.053-1.336-17.907-8.362-19.778-1.94-.516-3.926-.446-5.836.115"/><path d="M71.714 2.04H20.511a3.013 3.013 0 0 0-3.013 3.013V33c0 17.072 12.836 30.96 28.614 30.96 15.779 0 28.615-13.888 28.615-30.96V5.053a3.012 3.012 0 0 0-3.013-3.013z"/><path d="M50.153 24.926c-4.655-13.256-3.541-12.94-8.087 0-14.219.284-13.508-.626-2.505 7.63C35.45 46 34.757 45.08 46.11 37.264c11.656 8.024 10.558 8.395 6.548-4.708 11.33-8.5 11.3-7.354-2.505-7.63zM42.222 84.79V70.984m7.781 13.806V70.984"/></g><path d="M-1.883 0h96v96h-96z"/></g></svg>